<?xml version="1.0" encoding="UTF-8"?>
<!DOCTYPE svg PUBLIC "-//W3C//DTD SVG 1.1//EN" "http://www.w3.org/Graphics/SVG/1.1/DTD/svg11.dtd">
<!-- Creator: CorelDRAW X8 -->
<svg xmlns="http://www.w3.org/2000/svg" xml:space="preserve" width="258.065mm" height="235.778mm" version="1.1" style="shape-rendering:geometricPrecision; text-rendering:geometricPrecision; image-rendering:optimizeQuality; fill-rule:evenodd; clip-rule:evenodd"
viewBox="0 0 25806 23577"
 xmlns:xlink="http://www.w3.org/1999/xlink">
 <defs>
  <style type="text/css">
   <![CDATA[
    .fil0 {fill:#2B2A29}
   ]]>
  </style>
 </defs>
 <g id="Layer_x0020_1">
  <metadata id="CorelCorpID_0Corel-Layer"/>
  <path class="fil0" d="M4471 8559l112 181c-74,45 -147,91 -219,134l-114 -178c72,-46 145,-91 221,-137zm333 49l-112 -180c1060,-631 2266,-1195 3307,-1405 0,5 0,10 0,15 0,61 -5,127 -10,193 -249,51 -498,127 -732,203 -825,295 -1669,709 -2453,1174zm4397 2900c-186,0 -1753,-569 -2179,-696 -2505,-680 -4227,-1684 -3997,-2415 160,-503 1220,-768 2721,-762 -135,69 -270,137 -403,208 -89,2 -181,6 -270,8 -551,40 -1143,99 -1639,368 -294,205 -274,376 -73,651 440,487 1079,784 1664,1051 663,277 1351,510 2045,698 830,224 1374,285 2131,285 139,0 253,91 289,218 0,0 0,0 2,0l0 6c6,25 8,52 8,81 0,25 -2,52 -8,79 0,114 -179,220 -291,220l0 0zm-1042 -5902l201 0c-10,-125 -20,-245 -31,-364l-198 0c10,123 20,241 28,364zm-379 4991c-65,-15 -131,-29 -200,-44 13,-31 25,-64 40,-96 415,-1120 546,-2332 579,-3521 0,-345 -4,-698 -23,-1051l201 0c15,256 26,523 26,790 0,1562 -242,2963 -623,3922l0 0zm292 -6187c176,15 346,-82 366,-313 3,-320 -815,-1702 -982,-1989 -249,-404 -552,-645 -864,-645 -996,0 -1809,2341 -1809,5212 0,271 6,539 21,798 66,-6 132,-10 197,-14 -50,-1465 24,-3001 504,-4401 162,-442 577,-1522 1216,-1374 239,84 415,292 554,510 54,81 104,170 150,251 338,735 342,999 342,1664 0,168 138,301 305,301l0 0zm-1808 7154c-56,41 -114,84 -172,124 160,131 324,199 500,199 335,0 652,-267 924,-734 -71,-15 -142,-29 -213,-44 -102,163 -223,316 -378,453l-71 45 -69 36c-201,74 -373,25 -521,-79l0 0zm-909 -1077c86,33 173,66 258,97 64,154 135,302 216,447 14,25 29,51 44,76 -56,40 -109,79 -165,119 -130,-206 -246,-455 -353,-739l0 0zm3 -648c-79,-29 -156,-62 -231,-96 -77,-302 -143,-628 -193,-975 60,-39 123,-74 187,-110 54,399 129,798 237,1181l0 0zm2951 -4800l-198 0c-10,-83 -20,-168 -31,-251l198 0c10,83 21,164 31,251zm14960 7218c-1902,-220 -3662,-1371 -5103,-3980 -1396,-2530 -2403,-3886 -3104,-3967 -569,-66 -1237,2113 -2435,6858l-409 0c604,-4577 1377,-7619 2400,-10699 91,-284 239,-469 394,-469 239,0 384,191 505,469 1145,2538 2199,5182 3355,7808 623,1408 2663,3826 4387,3846l10 134 0 0zm-11212 56l93 -665 368 0 -168 671 -293 -6zm-6934 -3663l-10 0c0,0 0,4 4,4l6 -4zm-1961 1299c110,-112 110,-318 0,-427 -116,-117 -311,-109 -426,0 -406,392 -991,1067 -1463,1554 -1102,1144 -1572,2134 -1077,2525 716,572 3190,-296 5598,-1942 -2,0 -5,-4 -5,-4 173,-124 818,-587 968,-705 -76,-21 -158,-42 -233,-67 -123,92 -743,534 -864,620 2,0 2,0 2,0 -277,191 -559,372 -840,538 -927,562 -1921,1060 -2962,1367 -429,112 -991,256 -1423,102l-63 -31 -53 -35c-336,-313 129,-1017 312,-1295 238,-338 514,-654 803,-951 516,-535 1427,-944 1726,-1249l0 0zm5439 -2995c297,-5 534,51 688,173 481,384 56,1328 -980,2428 27,-129 56,-257 79,-386 348,-394 672,-828 848,-1318 94,-323 77,-539 -259,-658 -127,-23 -254,-33 -381,-33 3,-69 5,-137 5,-206l0 0zm-1502 3464c79,21 158,42 237,62 31,-26 109,-107 140,-132 48,-133 56,-204 96,-336 -152,140 -315,272 -473,406l0 0zm-3019 -1610l111 176c-73,48 -149,98 -223,147 -3,0 -3,0 -5,0l-110 -173c75,-48 151,-99 227,-150zm12634 4744c632,0 1147,-515 1147,-1147 0,-632 -515,-1148 -1147,-1148 -633,0 -1148,516 -1148,1148 0,632 515,1147 1148,1147zm-10074 -3829c312,0 569,-257 569,-571 0,-313 -257,-570 -569,-570 -315,0 -571,257 -571,570 0,314 256,571 571,571zm277 2656c591,3564 965,7974 2065,8014 762,30 1130,-1422 1580,-2466l521 0c-649,1963 -1319,5474 -2233,5646 -348,67 -641,-566 -1019,-1989 -317,-1206 -711,-4709 -914,-9205l0 0zm3119 5195l-3 -5124 4487 0 0 2081 -2216 0 0 409 1000 0 0 2034 -1129 -8 0 608 -2139 0zm198 -4923l4085 0 0 1679 -2215 0 0 810 1001 0 0 1631 -1131 -8 0 610 -1737 0 -3 -4722zm7686 623l-196 195 -4 1971c-155,905 -809,1540 -1662,1824 -104,30 -220,61 -330,79 -533,81 -1067,0 -1559,-219l-191 -94c-56,-33 -135,-81 -190,-116l751 -1733c376,104 882,247 1141,-152 56,-105 83,-201 98,-317l8 -1243 -208 -191 0 1418c-25,302 -228,414 -439,398 -262,-25 -486,-75 -712,-167l-888 2060c510,369 1074,566 1716,591 1380,23 2517,-982 2665,-2120l0 -2184 0 0zm549 4300l-3 -5124 4486 0 0 2081 -2215 0 0 409 1001 0 0 2034 -1131 -8 0 608 -2138 0zm198 -4923l4084 0 0 1679 -2215 0 0 810 1001 0 0 1631 -1131 -8 0 610 -1737 0 -2 -4722 0 0zm5971 901c632,0 1149,-515 1149,-1147 0,-632 -517,-1148 -1149,-1148 -632,0 -1148,516 -1148,1148 0,632 516,1147 1148,1147zm-978 -73l0 3894 1946 0 0 -3894 200 -201 0 4296 -2346 0 0 -4296 200 201zm-12836 -2006l0 -204c-110,-7 -219,-17 -328,-27l0 203c109,10 220,20 328,28l0 0zm2420 -1890c18,-66 35,-134 54,-200 865,471 1336,960 1208,1363 -193,598 -1621,857 -3541,737l0 -206c567,33 1133,36 1700,-2 485,-51 998,-110 1430,-351 168,-119 272,-228 205,-439 -172,-364 -568,-612 -896,-816 -54,-27 -106,-58 -160,-86l0 0zm-3754 -1296c33,-63 60,-127 87,-193 1043,232 1990,527 2773,844 -11,69 -23,137 -33,206 -725,-305 -1481,-534 -2238,-724 -195,-46 -391,-89 -589,-133l0 0zm-615 -127c25,-43 48,-85 69,-129 8,-18 18,-38 27,-61 -141,-25 -281,-51 -418,-73 -5,66 -13,134 -18,201 112,19 226,42 340,62l0 0zm-1776 -454c-141,54 -281,110 -415,168 415,27 832,71 1249,129 8,-65 13,-135 17,-200 -291,-39 -573,-72 -851,-97zm3209 3721l0 -203c-115,-11 -229,-23 -343,-38l0 203c114,15 231,28 343,38z"/>
 </g>
</svg>
